<svg width="38" height="36" viewBox="0 0 38 36" fill="none" xmlns="http://www.w3.org/2000/svg">
<path d="M37.2114 29.9184H33.6259L27.7905 19.0465C31.9386 17.166 34.0127 14.1813 34.0127 10.0924C34.0193 7.50389 33.0568 5.00668 31.3147 3.0922C29.516 1.03024 26.5769 -0.000492879 22.4973 1.76807e-07H15.5127V6.08161H19.1677C20.4916 6.00598 21.8033 6.36999 22.8989 7.11702C23.3602 7.49133 23.7244 7.97146 23.9604 8.51663C24.1964 9.0618 24.2973 9.65589 24.2546 10.2484C24.2546 13.0781 22.275 14.4929 18.3157 14.4929H15.5127V20.238H19.2232L27.3335 35.9978H37.2114V29.9184Z" fill="white"/>
<path d="M0.309885 36.0007V30.2319H5.2651V5.77462H0V0.00585938H13.1646V30.2319H17.8639V36.0007H0.309885Z" fill="#DA2128"/>
</svg>
