<svg width="25" height="24" viewBox="0 0 25 24" fill="none" xmlns="http://www.w3.org/2000/svg">
<path d="M20.5517 3.51375C18.283 1.24875 15.2717 0 12.0654 0C8.85918 0 5.84793 1.24878 3.57918 3.51375C1.31418 5.78244 0.0654297 8.79375 0.0654297 12C0.0654297 15.2063 1.31421 18.2175 3.57918 20.4862C5.84787 22.7512 8.85918 24 12.0654 24C15.2717 24 18.2829 22.7512 20.5517 20.4862C22.8167 18.2176 24.0654 15.2063 24.0654 12C24.0654 8.79375 22.8166 5.7825 20.5517 3.51375ZM19.4905 19.425C17.5068 21.4087 14.8705 22.4999 12.0655 22.4999C9.26052 22.4999 6.62427 21.4086 4.64052 19.425C2.65687 17.4412 1.56559 14.805 1.56559 12C1.56559 9.195 2.6569 6.55875 4.64052 4.575C6.62427 2.59134 9.26052 1.50006 12.0655 1.50006C14.8705 1.50006 17.5068 2.59137 19.4905 4.575C21.4742 6.55875 22.5655 9.195 22.5655 12C22.5655 14.805 21.4741 17.4412 19.4905 19.425ZM12.8155 17.2499C12.8155 17.6624 12.478 17.9999 12.0655 17.9999C11.6531 17.9999 11.3155 17.6624 11.3155 17.2499C11.3155 16.8375 11.6531 16.4999 12.0655 16.4999C12.478 16.4999 12.8155 16.8375 12.8155 17.2499ZM15.7143 9.62619C16.1418 11.5012 15.1144 13.3949 13.3219 14.0324C13.0893 14.115 12.9132 14.2837 12.8457 14.4862C12.7407 14.8011 12.4482 15 12.1331 15C12.0544 15 11.9757 14.9887 11.8969 14.9625C11.5031 14.8313 11.2932 14.4074 11.4244 14.0138C11.6382 13.3687 12.1482 12.8625 12.8194 12.6225C13.7569 12.2888 14.552 11.2688 14.2519 9.96384C14.0682 9.16134 13.4044 8.49753 12.6019 8.31381C11.8969 8.15255 11.2069 8.30636 10.6594 8.74131C10.123 9.16868 9.81554 9.81002 9.81554 10.5C9.81554 10.9162 9.48179 11.25 9.06554 11.25C8.64929 11.25 8.31554 10.9162 8.31554 10.5C8.31554 9.35249 8.82932 8.28365 9.72922 7.56746C10.6255 6.85115 11.7955 6.58871 12.9392 6.85115C14.3118 7.16243 15.4031 8.25374 15.7144 9.62618L15.7143 9.62619Z" fill="#9FAFC7"/>
</svg>
