<svg width="24" height="24" viewBox="0 0 24 24" fill="none" xmlns="http://www.w3.org/2000/svg">
<path d="M12 6C8.69253 6 6.00003 8.6925 6.00003 12C6.00003 15.3075 8.69253 18 12 18C15.3075 18 18 15.3075 18 12C18 8.6925 15.3075 6 12 6ZM12 16.5C9.5175 16.5 7.50003 14.4825 7.50003 12C7.50003 9.51747 9.5175 7.5 12 7.5C14.4826 7.5 16.5 9.51747 16.5 12C16.5 14.4825 14.4826 16.5 12 16.5ZM24 12C24 10.4363 22.8001 9.15003 21.2701 9.01122C21.1088 8.50878 20.9063 8.02122 20.6663 7.55625C21.1163 7.02 21.36 6.34494 21.36 5.63622C21.36 4.83372 21.0488 4.07994 20.4826 3.51365C19.4139 2.44494 17.5838 2.37365 16.4401 3.32994C15.9751 3.08995 15.4876 2.88744 14.9851 2.72619C14.85 1.19994 13.5638 0 12 0C10.4363 0 9.15007 1.19994 9.01125 2.72997C8.50882 2.89123 8.02125 3.09375 7.55628 3.33372C6.41247 2.37741 4.58253 2.44872 3.51378 3.51744C2.9475 4.08372 2.63634 4.83737 2.63634 5.64C2.63634 6.34875 2.88012 7.02378 3.33006 7.56003C3.09007 8.02878 2.88756 8.51253 2.72631 9.015C1.19994 9.15001 0 10.4362 0 12C0 13.5638 1.19994 14.85 2.72997 14.9888C2.89123 15.4912 3.09375 15.9788 3.33372 16.4438C2.88378 16.98 2.64 17.6551 2.64 18.3638C2.64 19.1663 2.95128 19.9201 3.51744 20.4863C4.58616 21.5551 6.41625 21.6263 7.55994 20.6701C8.02491 20.9101 8.51244 21.1126 9.01491 21.2738C9.15004 22.8001 10.4363 24 12 24C13.5637 24 14.85 22.8001 14.9888 21.27C15.4912 21.1088 15.9788 20.9063 16.4438 20.6663C17.5876 21.6226 19.4137 21.5513 20.4863 20.4826C21.0525 19.9163 21.3637 19.1626 21.3637 18.36C21.3637 17.6513 21.1199 16.9762 20.67 16.44C20.91 15.9712 21.1125 15.4875 21.2737 14.985C22.8001 14.85 24 13.5638 24 12ZM20.7038 13.5C20.3625 13.5 20.0625 13.7325 19.9763 14.0625C19.785 14.8087 19.4887 15.525 19.0988 16.1851C18.9263 16.4813 18.9714 16.8563 19.215 17.0963L19.4213 17.3026C19.7064 17.5876 19.8601 17.9626 19.8601 18.3639C19.8601 18.7651 19.7026 19.1401 19.4213 19.4252C18.8551 19.9915 17.8688 19.9915 17.2988 19.4252L17.0888 19.2189C16.8488 18.9789 16.47 18.9302 16.1776 19.1063C15.5175 19.4963 14.805 19.7926 14.0588 19.9838C13.7326 20.0625 13.5001 20.3625 13.5001 20.7037V21C13.5001 21.8288 12.8288 22.5 12.0001 22.5C11.1713 22.5 10.5001 21.8288 10.5001 21V20.7037C10.5001 20.3624 10.2675 20.0625 9.93755 19.9762C9.19133 19.7849 8.47502 19.4886 7.81877 19.0988C7.69878 19.0275 7.56755 18.9938 7.43633 18.9938C7.24139 18.9938 7.05012 19.0687 6.90752 19.2113L6.69756 19.4213C6.13128 19.9876 5.14506 19.9876 4.575 19.4213C4.28996 19.1362 4.13628 18.7612 4.13628 18.36C4.13628 17.9587 4.29375 17.5837 4.575 17.2987L4.7813 17.0924C5.02129 16.8486 5.06999 16.4736 4.89751 16.1812C4.50751 15.5211 4.21123 14.8086 4.02007 14.0586C3.93755 13.7325 3.63751 13.5 3.29632 13.5H3.00005C2.1713 13.5 1.50005 12.8288 1.50005 12C1.50005 11.1713 2.1713 10.5 3.00005 10.5H3.29632C3.63763 10.5 3.93757 10.2675 4.02385 9.9375C4.21514 9.19128 4.51141 8.47497 4.90129 7.81494C5.07377 7.51867 5.02873 7.14369 4.78508 6.90369L4.57878 6.69739C4.29374 6.41235 4.14006 6.03736 4.14006 5.63611C4.14006 5.23486 4.29753 4.85986 4.57878 4.57483C5.14506 4.00854 6.13128 4.00854 6.70134 4.57483L6.9113 4.78113C7.15508 5.02112 7.53008 5.06982 7.82255 4.89368C8.48258 4.50368 9.19512 4.2074 9.94133 4.01624C10.2713 3.92994 10.5038 3.6338 10.5038 3.28871V3.00001C10.5038 2.17126 11.1751 1.50001 12.0038 1.50001C12.8326 1.50001 13.5038 2.17126 13.5038 3.00001V3.29628C13.5038 3.63759 13.7364 3.93753 14.0663 4.02381C14.8126 4.21509 15.5289 4.51137 16.1851 4.90125C16.4776 5.07373 16.8526 5.02869 17.0964 4.7887L17.3063 4.57873C17.8726 4.01245 18.8588 4.01245 19.4289 4.57873C19.7139 4.86377 19.8676 5.23876 19.8676 5.64001C19.8676 6.04126 19.7101 6.41626 19.4289 6.7013L19.2226 6.9076C18.9826 7.15137 18.9339 7.52638 19.1064 7.81885C19.4964 8.47888 19.7927 9.19141 19.9838 9.94141C20.0701 10.2714 20.37 10.5039 20.7114 10.5039L21 10.5038C21.8288 10.5038 22.5 11.175 22.5 12.0038C22.5 12.8325 21.8288 13.5038 21 13.5038H20.7038L20.7038 13.5Z" fill="#9FAFC7"/>
</svg>
