<svg width="18" height="18" viewBox="0 0 18 18" fill="none" xmlns="http://www.w3.org/2000/svg">
<path d="M16.2198 7.31868H10.4835V1.58242C10.4835 0.712071 9.77145 0 8.9011 0C8.03075 0 7.31868 0.712071 7.31868 1.58242V7.31868H1.58242C0.712071 7.31868 0 8.03075 0 8.9011V9V9.0989C0 9.96925 0.712071 10.6813 1.58242 10.6813H7.31868V16.4176C7.31868 17.2879 8.03075 18 8.9011 18C9.77145 18 10.4835 17.2879 10.4835 16.4176V10.6813H16.2198C17.0901 10.6813 17.8022 9.96925 17.8022 9.0989V9V8.9011C17.8022 8.03075 17.0901 7.31868 16.2198 7.31868Z" fill="white"/>
</svg>
