<svg width="26" height="26" viewBox="0 0 26 26" fill="none" xmlns="http://www.w3.org/2000/svg">
<path d="M14.6463 9.76479C14.6463 12.4612 12.4604 14.647 9.76405 14.647C7.06766 14.647 4.88184 12.4612 4.88184 9.76479C4.88184 7.06859 7.06766 4.88281 9.76405 4.88281C12.4604 4.88281 14.6463 7.06857 14.6463 9.76479Z" fill="#99C2FD"/>
<path d="M13.0188 16.2363H6.50938C2.9143 16.2363 0 19.1506 0 22.7457V25.1867C0 25.6361 0.364281 26.0004 0.813656 26.0004H18.7146C19.164 26.0004 19.5283 25.6361 19.5283 25.1867V22.7457C19.5284 19.1506 16.614 16.2363 13.0189 16.2363H13.0188Z" fill="#99C2FD"/>
<path d="M11.7255 3.5584C14.3014 4.37448 16.1782 6.74128 16.2668 9.55575C16.2704 9.66949 16.3647 9.76342 16.4783 9.75721C19.0821 9.61474 21.15 7.41443 21.0855 4.76134C21.0258 2.30582 19.0405 0.203501 16.5915 0.0149168C14.2861 -0.162583 12.2829 1.26255 11.5889 3.30062C11.5523 3.4085 11.6168 3.52423 11.7253 3.55855L11.7255 3.5584Z" fill="#99C2FD"/>
<path d="M19.4598 11.3516H16.2266C16.1366 11.3516 16.06 11.4122 16.0363 11.4991C15.7316 12.6122 15.1373 13.6076 14.3355 14.3928C14.2151 14.5107 14.2745 14.7033 14.4404 14.7324C17.671 15.3018 20.2411 17.7825 20.9557 20.9592C20.9763 21.0505 21.0552 21.1157 21.1488 21.1157H25.1554C25.6029 21.1157 25.9691 20.7576 25.9691 20.302V17.8611C25.9693 14.2729 23.0562 11.3517 19.4597 11.3517L19.4598 11.3516Z" fill="#99C2FD"/>
</svg>
