<svg width="18" height="18" viewBox="0 0 18 18" fill="none" xmlns="http://www.w3.org/2000/svg">
<path fill-rule="evenodd" clip-rule="evenodd" d="M13.5971 12.1658C14.9389 13.432 16.3726 14.7124 17.671 16.0107C17.8931 16.2313 18.0011 16.5254 17.9999 16.8202C17.9987 17.1108 17.8898 17.4042 17.6781 17.6289L17.6289 17.678C17.4043 17.8897 17.1113 17.9988 16.8203 18C16.5255 18.0012 16.2316 17.8932 16.01 17.6717C14.7613 16.2996 13.4414 14.949 12.1658 13.5971C12.0638 13.4887 11.9308 13.4246 11.7933 13.4083C11.6563 13.3923 11.5128 13.4239 11.3881 13.5057L11.3663 13.5187C9.93097 14.4551 8.24065 14.8388 6.59772 14.6699C4.97451 14.5029 3.39653 13.7979 2.15429 12.5556C0.718209 11.1195 0 9.23671 0 7.35476C0 5.47282 0.718142 3.59038 2.15396 2.15446C3.59031 0.718109 5.47282 0 7.35477 0C9.23704 0 11.1192 0.718142 12.5552 2.15396C13.7978 3.39635 14.5027 4.97429 14.6699 6.59755C14.8397 8.24882 14.4514 9.94792 13.5045 11.388C13.4234 11.5113 13.3928 11.6552 13.4083 11.7932C13.4249 11.9309 13.4889 12.0636 13.5971 12.1657L13.5971 12.1658ZM7.35475 1.83235C5.94131 1.83235 4.52775 2.3717 3.44968 3.44983C2.37149 4.52803 1.83221 5.94164 1.83221 7.35489C1.83221 8.76833 2.37155 10.1819 3.44968 11.26C4.52761 12.3382 5.94116 12.8774 7.35475 12.8774C8.76818 12.8774 10.1817 12.3381 11.2598 11.26C12.338 10.182 12.8773 8.76848 12.8773 7.35489C12.8773 5.94173 12.3379 4.52806 11.2598 3.44983C10.1819 2.37164 8.76833 1.83235 7.35475 1.83235Z" fill="#1D2D49"/>
</svg>
