<svg width="26" height="26" viewBox="0 0 26 26" fill="none" xmlns="http://www.w3.org/2000/svg">
<path d="M10.8333 3.25V22.75C10.8333 23.6119 10.4909 24.4386 9.88147 25.0481C9.27198 25.6576 8.44526 26 7.58333 26H3.25C2.38807 26 1.56136 25.6576 0.95186 25.0481C0.342362 24.4386 0 23.6119 0 22.75V3.25C0 2.38807 0.342391 1.56136 0.95186 0.95186C1.56136 0.342362 2.38807 0 3.25 0H7.58333C8.44526 0 9.27198 0.342391 9.88147 0.95186C10.491 1.56136 10.8333 2.38807 10.8333 3.25ZM22.75 17.0083H16.25C15.3881 17.0083 14.5614 17.3507 13.9519 17.9602C13.3424 18.5697 13 19.3964 13 20.2583V22.75C13 23.6119 13.3424 24.4386 13.9519 25.0481C14.5614 25.6576 15.3881 26 16.25 26H22.75C23.6119 26 24.4386 25.6576 25.0481 25.0481C25.6576 24.4386 26 23.6119 26 22.75V20.2583C26 19.3964 25.6576 18.5697 25.0481 17.9602C24.4386 17.3507 23.6119 17.0083 22.75 17.0083ZM22.75 0H16.25C15.3881 0 14.5614 0.342391 13.9519 0.95186C13.3424 1.56136 13 2.38807 13 3.25V11.5917C13 12.4536 13.3424 13.2803 13.9519 13.8898C14.5614 14.4993 15.3881 14.8417 16.25 14.8417H22.75C23.6119 14.8417 24.4386 14.4993 25.0481 13.8898C25.6576 13.2803 26 12.4536 26 11.5917V3.25C26 2.38807 25.6576 1.56136 25.0481 0.95186C24.4386 0.342362 23.6119 0 22.75 0Z" fill="#99C2FD"/>
</svg>
