<svg width="40" height="40" viewBox="0 0 40 40" fill="none" xmlns="http://www.w3.org/2000/svg">
<path fill-rule="evenodd" clip-rule="evenodd" d="M9.35181 24.7455H12.133V21.1658C12.133 20.1542 12.5449 19.2355 13.2106 18.57C13.8762 17.9051 14.794 17.4924 15.8063 17.4924H19.1864V14.5726C17.186 14.1928 15.6736 12.4351 15.6736 10.3248C15.6736 7.93627 17.6098 6 19.9984 6C22.387 6 24.3233 7.93618 24.3233 10.3248C24.3233 12.436 22.8109 14.1929 20.8104 14.5726V17.4924H24.1905C25.2021 17.4924 26.1207 17.9043 26.7863 18.57C27.452 19.2356 27.8639 20.1534 27.8639 21.1658V24.7455H30.645C31.94 24.7455 33 25.8054 33 27.1005V31.1377C33 32.4327 31.9401 33.4927 30.645 33.4927H23.4596C22.1646 33.4927 21.1047 32.4328 21.1047 31.1377V27.1005C21.1047 25.8055 22.1645 24.7455 23.4596 24.7455H26.2408V21.1658C26.2408 20.6016 26.0107 20.0898 25.6394 19.7185C25.268 19.3471 24.7554 19.117 24.1921 19.117H15.8079C15.2437 19.117 14.732 19.3471 14.3606 19.7185C13.9893 20.0898 13.7592 20.6024 13.7592 21.1658V24.7455H16.5404C17.8354 24.7455 18.8953 25.8054 18.8953 27.1005V31.1377C18.8953 32.4327 17.8355 33.4927 16.5404 33.4927H9.35496C8.05996 33.4927 7 32.4328 7 31.1377V27.1005C7 25.8055 8.05986 24.7455 9.35496 24.7455H9.35181Z" fill="#99C2FD"/>
</svg>
