<svg width="46" height="46" viewBox="0 0 46 46" fill="none" xmlns="http://www.w3.org/2000/svg">
<rect width="46" height="46" rx="8" fill="#3F8CFF"/>
<path d="M31.022 21.1319H24.6484V14.7582C24.6484 13.7912 23.8572 13 22.8901 13C21.9231 13 21.1319 13.7912 21.1319 14.7582V21.1319H14.7582C13.7912 21.1319 13 21.9231 13 22.8901V23V23.1099C13 24.0769 13.7912 24.8681 14.7582 24.8681H21.1319V31.2418C21.1319 32.2088 21.9231 33 22.8901 33C23.8572 33 24.6484 32.2088 24.6484 31.2418V24.8681H31.022C31.989 24.8681 32.7802 24.0769 32.7802 23.1099V23V22.8901C32.7802 21.9231 31.989 21.1319 31.022 21.1319Z" fill="white"/>
</svg>
