<svg width="40" height="40" viewBox="0 0 40 40" fill="none" xmlns="http://www.w3.org/2000/svg">
<path d="M21 3.15932V1.83925C21 1.15932 20.24 0.759316 19.7201 1.15932L16.0001 3.59928C15.5202 3.91934 15.5202 4.63925 16.0001 4.99928L19.6801 7.47922C20.2401 7.83925 20.96 7.43924 20.96 6.79928V5.55932C28.48 6.07938 34.48 12.3593 34.48 20.0393C34.48 20.6793 35.0001 21.1994 35.6401 21.1994C36.28 21.1994 36.8001 20.6793 36.8001 20.0393C36.8401 11.0393 29.8001 3.67932 21.0001 3.15932H21Z" fill="#99C2FD"/>
<path d="M24.0001 34.9989L20.3201 32.519C19.7601 32.1589 19.0402 32.5589 19.0402 33.1989V34.4389C11.5202 33.9188 5.52019 27.6389 5.52019 19.9589C5.52019 19.3189 5.00012 18.7988 4.36016 18.7988C3.72019 18.7988 3.16016 19.3589 3.16016 19.9988C3.16016 28.9588 10.1602 36.2788 19.0002 36.7988V38.1189C19.0002 38.7988 19.7602 39.1988 20.2801 38.7988L24.0001 36.3988C24.48 36.0388 24.48 35.3189 24.0001 34.9988L24.0001 34.9989Z" fill="#99C2FD"/>
<path d="M20.0002 9.24023C14.0402 9.24023 9.24023 14.0402 9.24023 20.0002C9.24023 25.9602 14.0402 30.7602 20.0002 30.7602C25.9602 30.7602 30.7602 25.9602 30.7602 20.0002C30.7602 14.0402 25.9602 9.24023 20.0002 9.24023ZM20.9603 25.0402V26.2003C20.9603 26.4003 20.8002 26.5603 20.6002 26.5603H19.4002C19.2002 26.5603 19.0402 26.4003 19.0402 26.2003V25.0802C17.8002 24.9601 16.8002 23.9601 16.6802 22.7202C16.6802 22.6402 16.7201 22.5202 16.7601 22.4402C16.8401 22.3603 16.9201 22.3202 17.0401 22.3202H18.28C18.4401 22.3202 18.6001 22.4402 18.6401 22.6001C18.72 22.9202 19.0001 23.1601 19.3601 23.1601L20.4002 23.1603C21.0002 23.1603 21.5203 22.7203 21.5603 22.2002C21.6002 21.8802 21.4803 21.6002 21.2803 21.3603C21.0803 21.1203 20.7602 21.0002 20.4803 21.0002H19.6803C18.0803 21.0002 16.6803 19.8002 16.5203 18.2802C16.3603 16.6802 17.4803 15.2402 19.0403 15.0002V13.8802C19.0403 13.6802 19.2004 13.5201 19.4004 13.5201H20.6004C20.8004 13.5201 20.9604 13.6802 20.9604 13.8802V15.0002C22.2004 15.1203 23.2004 16.1203 23.3204 17.3603C23.3204 17.4402 23.2805 17.5603 23.2405 17.6402C23.1606 17.7202 23.0805 17.7603 22.9606 17.7603H21.7206C21.5606 17.7603 21.4005 17.6402 21.3606 17.4803C21.2806 17.1603 21.0005 16.9203 20.6405 16.9203H19.6003C19.0003 16.9203 18.4802 17.3603 18.4402 17.8803C18.4002 18.2004 18.5202 18.4803 18.7202 18.7203C18.9202 18.9603 19.2402 19.0803 19.5202 19.0803H20.4402C21.2802 19.0803 22.1202 19.4404 22.6802 20.0803C23.2802 20.7203 23.5202 21.5603 23.4402 22.4404C23.3603 23.6802 22.3203 24.7603 20.9603 25.0402L20.9603 25.0402Z" fill="#99C2FD"/>
</svg>
