<svg width="20" height="24" viewBox="0 0 20 24" fill="none" xmlns="http://www.w3.org/2000/svg">
<path d="M19.0438 17.6963L17.5588 6.79126C17.2063 4.20372 14.9675 2.25 12.3575 2.25H10.2838V0.750001C10.2838 0.337532 9.94628 0 9.53381 0C9.12134 0 8.78381 0.337532 8.78381 0.750001V2.25H6.71009C4.0963 2.25 1.86133 4.20376 1.50883 6.79126L0.0200478 17.6963C-0.0662554 18.3413 0.128814 18.99 0.552517 19.4813C0.980018 19.9689 1.59877 20.2501 2.24746 20.2501L5.78371 20.25C5.78371 22.3163 7.46743 24 9.53372 24C11.6 24 13.2837 22.3163 13.2837 20.25H16.8162C17.465 20.25 18.0837 19.9687 18.5112 19.4812C18.9388 18.99 19.1337 18.3413 19.0438 17.6963L19.0438 17.6963ZM9.53378 22.5C8.29256 22.5 7.28377 21.4912 7.28377 20.25H11.7838C11.7838 21.4912 10.775 22.5 9.53378 22.5ZM17.3788 18.495C17.2363 18.6601 17.0338 18.75 16.8163 18.75H2.25127C2.03008 18.75 1.83124 18.6601 1.68499 18.495C1.53875 18.33 1.47869 18.12 1.50493 17.9025L2.99372 6.99748C3.24872 5.14507 4.84625 3.74997 6.70997 3.74997H12.3537C14.2213 3.74997 15.8187 5.14501 16.07 6.99373L17.5588 17.8987C17.5887 18.1161 17.5248 18.3262 17.3786 18.4949L17.3788 18.495Z" fill="#9FAFC7"/>
</svg>
