<svg width="32" height="36" viewBox="0 0 32 36" fill="none" xmlns="http://www.w3.org/2000/svg">
<path d="M4.99666 9.23897H5.86544C6.19125 9.23897 6.48075 9.38378 6.69806 9.60095C6.91522 9.85429 7.02387 10.1439 6.98769 10.4697C6.9514 11.0489 6.40843 11.4832 5.79309 11.4832H4.59849C4.27268 11.4832 3.98319 11.2299 3.9107 10.9041C3.87453 10.6869 3.65736 10.5421 3.44006 10.5421H2.10079C1.95598 10.5421 1.84746 10.6144 1.73881 10.6869C1.66647 10.7956 1.594 10.9041 1.63017 11.0489C1.77499 12.4607 2.86094 13.5466 4.23637 13.7276V14.8859C4.23637 15.1392 4.45354 15.3565 4.70701 15.3565H6.04628C6.29962 15.3565 6.51692 15.1393 6.51692 14.8859V13.6913C8.00101 13.3655 9.12312 12.171 9.26794 10.6868C9.37658 9.70948 9.05078 8.76821 8.39916 8.04424C7.74753 7.32028 6.84258 6.92213 5.86529 6.92213H4.85168C4.52587 6.92213 4.23637 6.77732 4.01907 6.56015C3.8019 6.30681 3.69325 6.01718 3.72943 5.69137C3.80178 5.11223 4.30857 4.67776 4.92403 4.67776H6.11863C6.44444 4.67776 6.73394 4.9311 6.80642 5.2569C6.8426 5.47406 7.05976 5.61888 7.27706 5.61888H8.61633C8.76114 5.61888 8.86967 5.54653 8.97831 5.47406C9.05066 5.36542 9.12313 5.2569 9.08695 5.11208C8.94213 3.70032 7.85618 2.61438 6.48075 2.43339V1.27532C6.48075 1.02198 6.26358 0.804688 6.01011 0.804688H4.67084C4.4175 0.804688 4.20021 1.02185 4.20021 1.27532V2.4336C2.49896 2.79558 1.26831 4.38833 1.4493 6.16201C1.63029 7.89946 3.18675 9.23885 4.99672 9.23885L4.99666 9.23897Z" fill="white"/>
<path d="M31.3125 12.7148H26.0638C25.6656 12.7148 25.376 13.0407 25.376 13.4026V34.4699C25.376 34.8681 25.7018 35.1577 26.0638 35.1577H31.3125C31.7106 35.1577 32.0003 34.8319 32.0003 34.4699L32.0002 13.4388C32.0002 13.0407 31.6745 12.7149 31.3125 12.7149L31.3125 12.7148Z" fill="white"/>
<path d="M22.8779 16.9492H17.6292C17.2311 16.9492 16.9414 17.275 16.9414 17.637V34.4691C16.9414 34.8673 17.2672 35.1569 17.6292 35.1569H22.8779C23.2761 35.1569 23.5657 34.8311 23.5657 34.4691V17.637C23.5657 17.275 23.2399 16.9492 22.8779 16.9492Z" fill="white"/>
<path d="M14.4443 23.2832H9.19561C8.79746 23.2832 8.50781 23.609 8.50781 23.971V34.4684C8.50781 34.8666 8.83363 35.1562 9.19561 35.1562H14.4443C14.8425 35.1562 15.1321 34.8304 15.1321 34.4684V23.971C15.1321 23.609 14.8063 23.2832 14.4443 23.2832Z" fill="white"/>
<path d="M6.00976 28.7129H0.761037C0.362887 28.7129 0.0732422 29.0387 0.0732422 29.4007V34.4684C0.0732422 34.8666 0.399055 35.1562 0.761037 35.1562H6.00976C6.40791 35.1562 6.69756 34.8304 6.69756 34.4684V29.4007C6.69756 29.0387 6.37174 28.7129 6.00976 28.7129Z" fill="white"/>
<path d="M21.3579 13.9086L28.7424 6.48801V8.08076C28.7424 8.69606 29.213 9.1667 29.8283 9.1667C30.4436 9.1667 30.9143 8.69606 30.9143 8.08076L30.9141 3.91797C30.9141 3.30267 30.4435 2.83203 29.8282 2.83203H25.6292C25.0139 2.83203 24.5433 3.30267 24.5433 3.91797C24.5433 4.53328 25.0139 5.00392 25.6292 5.00392H27.1858L20.1272 12.0625H15.168C14.7337 12.0625 14.3354 12.3159 14.1544 12.7142L11.7292 18.3973H7.02344C6.58912 18.3973 6.19082 18.6506 6.00983 19.0489L3.98277 23.8271H1.08692C0.471612 23.8271 0.000976562 24.2977 0.000976562 24.913C0.000976562 25.5283 0.471612 25.9989 1.08692 25.9989H4.70673C5.14105 25.9989 5.53935 25.7456 5.72034 25.3473L7.7474 20.5692H12.4532C12.8875 20.5692 13.2858 20.3158 13.4668 19.9175L15.892 14.2344H20.5977C20.8874 14.2344 21.177 14.1259 21.358 13.9086H21.3579Z" fill="white"/>
</svg>
