<svg width="26" height="23" viewBox="0 0 26 23" fill="none" xmlns="http://www.w3.org/2000/svg">
<path d="M23.2782 2.21461H12.3151L12.0107 1.56527C11.7904 1.09818 11.442 0.703129 11.0061 0.426085C10.5703 0.149042 10.0647 0.00122777 9.54815 0H2.71981C1.99862 0.000752312 1.30734 0.28766 0.797451 0.797547C0.287564 1.30753 0.000746293 1.99889 0 2.71997V20.053C0.000752312 20.7741 0.287564 21.4655 0.797451 21.9754C1.30734 22.4853 1.99862 22.7722 2.71981 22.773H23.2802C23.9243 22.7714 24.5468 22.5411 25.0367 22.1232C25.5268 21.7053 25.8524 21.1268 25.9557 20.4911C25.9855 20.3477 26.0004 20.2015 26 20.055V4.93074C25.9984 4.20994 25.711 3.51911 25.2008 3.00999C24.6905 2.50078 23.9991 2.21471 23.2783 2.21461H23.2782ZM22.9122 4.42735C23.1442 4.42735 23.3668 4.5196 23.5309 4.68362C23.695 4.84771 23.7871 5.07029 23.7871 5.30239V6.68956V6.68946C23.6201 6.65655 23.4504 6.63934 23.2801 6.63821H15.4144C15.108 6.63746 14.808 6.54991 14.5494 6.38553C14.2908 6.22125 14.0841 5.98699 13.9533 5.70987L13.3522 4.42738L22.9122 4.42735Z" fill="#99C2FD"/>
</svg>
